<svg xmlns="http://www.w3.org/2000/svg" viewBox="0 0 120 120" role="img" aria-label="Professor Peckingworth avatar">
  <defs>
    <radialGradient id="bg" cx="50%" cy="35%" r="75%">
      <stop offset="0%" stop-color="#fff8ec"/>
      <stop offset="100%" stop-color="#f5e3bd"/>
    </radialGradient>
  </defs>
  <rect width="120" height="120" rx="26" fill="url(#bg)"/>
  <circle cx="70" cy="42" r="10" fill="none" stroke="#c9a227" stroke-width="3"/><path d="M70 52 q2 10 -4 14" stroke="#c9a227" stroke-width="2" fill="none"/>
  <path d="M28 78 c-10 -2 -16 -8 -18 -16 c8 0 14 2 18 6 c-6 -6 -8 -14 -6 -20 c6 4 10 8 12 14 z" fill="#9fb0b8"/>
  <ellipse cx="58" cy="76" rx="26" ry="21" fill="#cfd8dc"/>
  <ellipse cx="52" cy="78" rx="13" ry="10" fill="#9fb0b8" opacity="0.85"/>
  <path d="M48 96 v10 M48 106 l-5 4 M48 106 l5 4 M68 96 v10 M68 106 l-5 4 M68 106 l5 4" stroke="#e07b2a" stroke-width="3" stroke-linecap="round" fill="none"/>
  <circle cx="66" cy="38" r="17" fill="#cfd8dc"/>
  <circle cx="58" cy="20" r="6" fill="#5c6e78"/>
  <circle cx="67" cy="17" r="6.5" fill="#5c6e78"/>
  <circle cx="76" cy="20" r="6" fill="#5c6e78"/>
  <path d="M82 36 l13 4 -13 5 z" fill="#e07b2a"/>
  <circle cx="70" cy="35" r="3.6" fill="#3e2f23"/>
  <circle cx="71.2" cy="33.8" r="1.2" fill="#ffffff"/>
</svg>