<svg xmlns="http://www.w3.org/2000/svg" viewBox="0 0 120 120" role="img" aria-label="Penny the Philanthropist avatar">
  <defs>
    <radialGradient id="bg" cx="50%" cy="35%" r="75%">
      <stop offset="0%" stop-color="#fff8ec"/>
      <stop offset="100%" stop-color="#f5e3bd"/>
    </radialGradient>
  </defs>
  <rect width="120" height="120" rx="26" fill="url(#bg)"/>
  <g transform="translate(84,20)"><circle r="5" fill="#ffd54f"/><circle cx="0" cy="-8" r="5" fill="#f48fb1"/><circle cx="8" cy="0" r="5" fill="#f48fb1"/><circle cx="0" cy="8" r="5" fill="#f48fb1"/><circle cx="-8" cy="0" r="5" fill="#f48fb1"/></g>
  <path d="M28 78 c-10 -2 -16 -8 -18 -16 c8 0 14 2 18 6 c-6 -6 -8 -14 -6 -20 c6 4 10 8 12 14 z" fill="#eab543"/>
  <ellipse cx="58" cy="76" rx="26" ry="21" fill="#f7d774"/>
  <ellipse cx="52" cy="78" rx="13" ry="10" fill="#eab543" opacity="0.85"/>
  <path d="M48 96 v10 M48 106 l-5 4 M48 106 l5 4 M68 96 v10 M68 106 l-5 4 M68 106 l5 4" stroke="#e07b2a" stroke-width="3" stroke-linecap="round" fill="none"/>
  <circle cx="66" cy="38" r="17" fill="#f7d774"/>
  <circle cx="58" cy="20" r="6" fill="#d95f4b"/>
  <circle cx="67" cy="17" r="6.5" fill="#d95f4b"/>
  <circle cx="76" cy="20" r="6" fill="#d95f4b"/>
  <path d="M82 36 l13 4 -13 5 z" fill="#e07b2a"/>
  <circle cx="70" cy="35" r="3.6" fill="#3e2f23"/>
  <circle cx="71.2" cy="33.8" r="1.2" fill="#ffffff"/>
</svg>